<svg xmlns="http://www.w3.org/2000/svg" width="22" height="23" id="github">
  <path fill="none" fill-rule="evenodd" stroke="#000" stroke-linecap="round" stroke-linejoin="round" stroke-width="2" d="M8 19c-5 1.5-5-2.5-7-3m14 6v-3.87a3.37 3.37 0 0 0-.94-2.61c3.14-.35 6.44-1.54 6.44-7A5.44 5.44 0 0 0 19 4.77 5.07 5.07 0 0 0 18.91 1S17.73.65 15 2.48a13.38 13.38 0 0 0-7 0C5.27.65 4.09 1 4.09 1A5.07 5.07 0 0 0 4 4.77a5.44 5.44 0 0 0-1.5 3.78c0 5.42 3.3 6.61 6.44 7A3.37 3.37 0 0 0 8 18.13V22"></path>
</svg>
